<!-- icon666.com - MILLIONS OF FREE VECTOR ICONS --><svg id="svg8" viewBox="0 0 6.3499999 6.3500002" xmlns="http://www.w3.org/2000/svg" xmlns:svg="http://www.w3.org/2000/svg"><g id="layer1" transform="translate(0 -290.65)"><path id="path49" d="m.5292521 295.1512a.26426366.26420917 0 0 0 .08.18162l1.05694 1.05673a.26426366.26420917 0 0 0 .37468 0l1.05696-1.05673a.26426366.26420917 0 1 0 -.37417-.37254l-.60486.60473v-4.11702a.2642988.26424431 0 0 0 -.52847 0v4.11909l-.60692-.6068a.26426366.26420917 0 0 0 -.45416.19092zm2.64289-2.64596a.26426366.26420917 0 0 0 .45467.18317l.60434-.60473v4.11702a.26430381.2642493 0 1 0 .52848 0v-4.11908l.60692.60679a.26426366.26420917 0 1 0 .37262-.3746l-1.05541-1.05673a.26426366.26420917 0 0 0 -.37468 0l-1.05694 1.05673a.26426366.26420917 0 0 0 -.08.19143z" font-variant-ligatures="normal" font-variant-position="normal" font-variant-caps="normal" font-variant-numeric="normal" font-variant-alternates="normal" font-feature-settings="normal" text-indent="0" text-align="start" text-decoration-line="none" text-decoration-style="solid" text-decoration-color="rgb(0,0,0)" text-transform="none" text-orientation="mixed" white-space="normal" shape-padding="0" isolation="auto" mix-blend-mode="normal" solid-color="rgb(0,0,0)" solid-opacity="1" vector-effect="none" fill="#000000" style="--darkreader-inline-fill: var(--darkreader-text-2e2e04, #d8d5d0); fill: rgb(46, 46, 46);" data-darkreader-inline-fill=""></path></g></svg>