<!-- icon666.com - MILLIONS OF FREE VECTOR ICONS --><svg version="1.1" id="Capa_1" xmlns="http://www.w3.org/2000/svg" xmlns:xlink="http://www.w3.org/1999/xlink" x="0px" y="0px" viewBox="0 0 511.984 511.984" style="enable-background:new 0 0 511.984 511.984;" xml:space="preserve"><g><g><g><path d="M466.2,109.787L359.555,3.141c-0.981-0.981-2.176-1.771-3.477-2.325c-2.603-1.088-5.547-1.088-8.149,0 c-1.323,0.533-2.496,1.323-3.477,2.325L237.805,109.787c-4.16,4.16-4.16,10.923,0,15.083c4.16,4.16,10.923,4.16,15.083,0 L341.315,36.4v208.917c0,29.419-23.915,53.333-53.333,53.333c-5.888,0-10.667,4.779-10.667,10.667s4.779,10.667,10.667,10.667 c41.173,0,74.667-33.493,74.667-74.667V36.4l88.448,88.448c2.091,2.091,4.821,3.136,7.552,3.136s5.461-1.045,7.552-3.115 C470.36,120.709,470.36,113.947,466.2,109.787z"></path><path d="M259.096,387.12l-88.448,88.448V266.651c0-29.419,23.915-53.333,53.333-53.333c5.888,0,10.667-4.779,10.667-10.667 s-4.779-10.667-10.667-10.667c-41.173,0-74.667,33.493-74.667,74.667v208.917L60.867,387.12c-4.16-4.16-10.923-4.16-15.083,0 c-4.16,4.16-4.16,10.923,0,15.083l106.645,106.645c0.981,0.981,2.176,1.771,3.477,2.325c1.301,0.533,2.688,0.811,4.075,0.811 s2.773-0.277,4.075-0.811c1.323-0.533,2.496-1.323,3.477-2.325l106.645-106.645c4.16-4.16,4.16-10.923,0-15.083 C270.019,382.96,263.256,382.96,259.096,387.12z"></path></g></g></g></svg>